<svg aria-hidden="true" style="position: absolute; width: 0; height: 0; overflow: hidden;" version="1.1" xmlns="http://www.w3.org/2000/svg" xmlns:xlink="http://www.w3.org/1999/xlink">
<defs>
<symbol id="icon-group-2" viewBox="0 0 25 32">
<path fill="#8e8f99" style="fill: var(--color1, #8e8f99)" d="M10.532 1.806h-0.084c-0.129-0.008-0.258-0.011-0.388-0.014h-0.28c-0.244 0-0.494 0.006-0.741 0.018-0.008-0.001-0.018-0.001-0.028-0.001s-0.020 0-0.029 0.001l0.001-0c-2.376 0.138-4.582 0.733-6.576 1.696l0.104-0.045-0.266 0.128v13.626l0.623-0.212c0.546-0.188 1.129-0.357 1.731-0.513 1.488-0.398 3.202-0.638 4.967-0.661l0.014-0v1.79c-0.223 0.001-0.439 0.007-0.655 0.018h-0.052c-1.399 0.079-2.709 0.289-3.971 0.619l0.139-0.031c-1.734 0.441-3.254 1.050-4.666 1.83l0.1-0.051v-17.475c1.379-0.82 2.975-1.488 4.665-1.921l0.127-0.028c1.353-0.364 2.907-0.576 4.51-0.582h0.267c0.314 0.008 0.622 0.022 0.91 0.044 0.829 0.060 1.597 0.187 2.339 0.378l-0.090-0.020v1.762c-0.628-0.154-1.373-0.271-2.134-0.326l-0.045-0.003-0.044-0.004c-0.152-0.013-0.304-0.026-0.446-0.026zM13.633 3.607c0.391 0.030 0.796 0.044 1.205 0.044 1.689-0.007 3.324-0.228 4.881-0.639l-0.135 0.030c1.734-0.442 3.252-1.052 4.665-1.831l-0.101 0.051v17.163c-1.379 0.819-2.975 1.487-4.664 1.921l-0.127 0.028c-1.353 0.363-2.908 0.574-4.511 0.581h-0.004c-0.033 0-0.072 0-0.111 0-1.177 0-2.319-0.147-3.409-0.425l0.095 0.021v-17.275c0.265 0.062 0.537 0.118 0.814 0.164 0.455 0.077 0.934 0.133 1.401 0.167zM22.367 3.74l-0.623 0.209c-0.572 0.193-1.151 0.365-1.731 0.518-1.551 0.415-3.332 0.657-5.169 0.663h-0.004c-0.406 0-0.78-0.011-1.141-0.034l-0.497-0.033v14.017l0.426 0.037c0.395 0.035 0.803 0.052 1.214 0.052 1.45-0.006 2.853-0.198 4.189-0.553l-0.116 0.026c1.221-0.31 2.281-0.702 3.285-1.189l-0.102 0.044 0.266-0.128v-13.63z"></path>
<path fill="#8e8f99" style="fill: var(--color1, #8e8f99)" d="M1.684 25.977c-0.167-0.173-0.401-0.281-0.661-0.281-0.011 0-0.023 0-0.034 0.001l0.002-0c-0.004-0-0.009-0-0.014-0-0.139 0-0.272 0.028-0.393 0.078l0.007-0.003c-0.237 0.095-0.42 0.28-0.51 0.512l-0.002 0.006c-0.049 0.123-0.073 0.254-0.071 0.386v2.335c-0.006 0.164 0.026 0.328 0.092 0.479 0.055 0.12 0.135 0.226 0.234 0.313 0.093 0.078 0.202 0.135 0.32 0.166 0.114 0.031 0.231 0.048 0.349 0.048 0.13 0.001 0.258-0.026 0.377-0.081 0.351-0.156 0.591-0.5 0.591-0.901v-0.261h-0.611v0.208c0 0.004 0 0.009 0 0.014 0 0.070-0.013 0.136-0.037 0.198l0.001-0.004c-0.021 0.052-0.051 0.095-0.089 0.132l-0 0c-0.070 0.054-0.159 0.088-0.255 0.089h-0c-0.011 0.001-0.023 0.002-0.036 0.002-0.103 0-0.194-0.050-0.25-0.127l-0.001-0.001c-0.051-0.082-0.082-0.182-0.082-0.289 0-0.008 0-0.016 0.001-0.024l-0 0.001v-2.177c-0.004-0.121 0.022-0.24 0.075-0.349 0.056-0.087 0.153-0.143 0.262-0.143 0.013 0 0.025 0.001 0.038 0.002l-0.001-0c0.003-0 0.007-0 0.012-0 0.107 0 0.201 0.052 0.26 0.131l0.001 0.001c0.063 0.082 0.101 0.187 0.101 0.3 0 0.005-0 0.009-0 0.014v-0.001 0.202h0.604v-0.238c0-0.003 0-0.007 0-0.011 0-0.143-0.027-0.28-0.077-0.405l0.003 0.007c-0.048-0.128-0.117-0.237-0.205-0.329l0 0zM5.31 25.951c-0.186-0.158-0.429-0.255-0.694-0.257h-0c-0.124 0-0.248 0.023-0.364 0.066-0.252 0.090-0.451 0.276-0.557 0.511l-0.002 0.006c-0.062 0.142-0.092 0.297-0.089 0.452v2.239c-0.004 0.158 0.026 0.314 0.089 0.458 0.055 0.121 0.135 0.228 0.236 0.313 0.094 0.086 0.203 0.154 0.322 0.197 0.117 0.043 0.24 0.065 0.364 0.066 0.267-0.001 0.51-0.1 0.695-0.264l-0.001 0.001c0.097-0.087 0.176-0.194 0.23-0.313 0.063-0.144 0.093-0.301 0.089-0.458v-2.239c0-0.006 0-0.013 0-0.020 0-0.156-0.033-0.305-0.092-0.439l0.003 0.007c-0.057-0.128-0.135-0.237-0.23-0.327l-0-0zM5.025 28.969c0.001 0.010 0.002 0.023 0.002 0.035 0 0.114-0.047 0.216-0.123 0.289l-0 0c-0.077 0.065-0.178 0.105-0.287 0.105s-0.21-0.040-0.288-0.105l0.001 0.001c-0.076-0.073-0.123-0.175-0.123-0.289 0-0.012 0.001-0.025 0.002-0.037l-0 0.002v-2.239c-0.001-0.010-0.001-0.022-0.001-0.034 0-0.113 0.047-0.216 0.123-0.289l0-0c0.077-0.065 0.178-0.105 0.287-0.105s0.21 0.040 0.288 0.105l-0.001-0.001c0.076 0.073 0.123 0.175 0.123 0.289 0 0.012-0.001 0.025-0.002 0.037l0-0.002v2.24zM10.072 29.969v-4.24h-0.586l-0.771 2.244h-0.010l-0.777-2.244h-0.58v4.239h0.606v-2.578h0.011l0.593 1.823h0.302l0.598-1.823h0.010v2.578h0.606zM13.513 26.027c-0.093-0.105-0.211-0.185-0.342-0.232-0.124-0.042-0.267-0.066-0.416-0.066-0.008 0-0.016 0-0.024 0l0.001-0h-0.9v4.24h0.604v-1.656h0.311c0.189 0.009 0.376-0.031 0.545-0.116 0.139-0.078 0.251-0.188 0.329-0.32l0.002-0.004c0.070-0.113 0.117-0.238 0.138-0.369 0.021-0.133 0.033-0.287 0.033-0.444 0-0.013-0-0.027-0-0.040l0 0.002c0.006-0.203-0.014-0.407-0.059-0.606-0.043-0.153-0.12-0.284-0.223-0.39l0 0zM13.201 27.319c-0.003 0.081-0.023 0.157-0.057 0.224l0.001-0.003c-0.035 0.065-0.089 0.116-0.154 0.147l-0.002 0.001c-0.075 0.034-0.162 0.054-0.254 0.054-0.011 0-0.022-0-0.033-0.001l0.002 0h-0.276v-1.441h0.311c0.009-0 0.019-0.001 0.029-0.001 0.088 0 0.172 0.020 0.247 0.055l-0.004-0.002c0.062 0.036 0.111 0.090 0.141 0.154l0.001 0.002c0.033 0.074 0.051 0.155 0.053 0.236v0.282c0 0.098 0.006 0.201 0 0.291h-0.006zM16.374 25.729h-0.495l-0.934 4.24h0.604l0.177-0.911h0.823l0.178 0.911h0.604l-0.958-4.24zM15.817 28.481l0.297-1.537h0.011l0.295 1.537h-0.604zM20.277 28.283h-0.011l-0.912-2.554h-0.581v4.24h0.604v-2.55h0.012l0.923 2.549h0.568v-4.239h-0.604v2.554zM23.968 25.729l-0.486 1.686h-0.012l-0.486-1.686h-0.639l0.83 2.448v1.791h0.604v-1.791l0.83-2.447h-0.64zM0 31.166h0.291v0.817h0.198v-0.817h0.289v-0.167h-0.778v0.168zM2.447 30.998l-0.382 0.985h0.21l0.081-0.224h0.392l0.084 0.224h0.215l-0.391-0.985h-0.21zM2.417 31.593l0.134-0.365 0.134 0.365h-0.268zM4.866 31.62h0.228v0.127c-0.063 0.051-0.145 0.082-0.234 0.083h-0c-0.004 0-0.009 0-0.014 0-0.079 0-0.149-0.037-0.195-0.094l-0-0c-0.046-0.065-0.073-0.147-0.073-0.234 0-0.008 0-0.016 0.001-0.023l-0 0.001c0-0.219 0.095-0.329 0.283-0.329 0.006-0.001 0.014-0.001 0.021-0.001 0.097 0 0.178 0.067 0.201 0.157l0 0.001 0.194-0.038c-0.042-0.192-0.18-0.289-0.417-0.289-0.004-0-0.008-0-0.013-0-0.127 0-0.244 0.048-0.331 0.127l0-0c-0.088 0.087-0.143 0.208-0.143 0.342 0 0.013 0 0.026 0.002 0.038l-0-0.002c-0 0.007-0 0.015-0 0.023 0 0.132 0.048 0.254 0.127 0.347l-0.001-0.001c0.087 0.090 0.209 0.146 0.343 0.146 0.011 0 0.021-0 0.032-0.001l-0.001 0c0.005 0 0.010 0 0.016 0 0.155 0 0.296-0.060 0.402-0.157l-0 0v-0.388h-0.426v0.166zM7.337 30.998h-0.199v0.985h0.689v-0.167h-0.49v-0.817zM9.426 30.998h-0.199v0.985h0.199v-0.985zM11.469 31.655l-0.404-0.657h-0.193v0.985h0.185v-0.643l0.396 0.643h0.198v-0.985h-0.182v0.658zM13.315 31.549h0.49v-0.167h-0.49v-0.215h0.527v-0.168h-0.727v0.985h0.747v-0.167h-0.548v-0.266zM17.792 31.386h-0.388v-0.388h-0.197v0.984h0.197v-0.431h0.388v0.431h0.198v-0.985h-0.198v0.388zM19.649 31.549h0.492v-0.167h-0.492v-0.215h0.529v-0.168h-0.726v0.985h0.746v-0.167h-0.548v-0.266zM22.168 31.55c0.171-0.027 0.258-0.118 0.258-0.274 0.001-0.008 0.002-0.018 0.002-0.028 0-0.079-0.038-0.148-0.098-0.191l-0.001-0c-0.073-0.037-0.159-0.059-0.25-0.059-0.014 0-0.027 0-0.040 0.001l0.002-0h-0.417v0.984h0.198v-0.412h0.039c0.005-0 0.010-0 0.016-0 0.039 0 0.076 0.008 0.109 0.023l-0.002-0.001c0.029 0.018 0.053 0.042 0.070 0.072l0.215 0.313h0.236l-0.12-0.192c-0.054-0.096-0.128-0.175-0.215-0.235l-0.002-0.002zM21.969 31.413h-0.146v-0.247h0.156c0.012-0.001 0.027-0.002 0.042-0.002 0.057 0 0.111 0.009 0.163 0.026l-0.004-0.001c0.026 0.024 0.043 0.058 0.043 0.096 0 0.042-0.020 0.080-0.052 0.104l-0 0c-0.049 0.016-0.106 0.025-0.164 0.025-0.013 0-0.026-0-0.039-0.001l0.002 0zM24.068 31.549h0.49v-0.167h-0.49v-0.215h0.529v-0.168h-0.729v0.985h0.747v-0.167h-0.548v-0.266z"></path>
</symbol>
<symbol id="icon-group-3" viewBox="0 0 34 32">
<path fill="#8e8f99" style="fill: var(--color1, #8e8f99)" d="M5.315 31.394c0.013 0 0.025 0.003 0.036 0.008 0.012 0.004 0.022 0.010 0.031 0.018l-0-0 0.172 0.162c-0.135 0.131-0.296 0.235-0.474 0.304l-0.010 0.003c-0.219 0.078-0.453 0.116-0.688 0.11-0.011 0-0.023 0-0.036 0-0.219 0-0.429-0.038-0.624-0.107l0.013 0.004c-0.188-0.067-0.35-0.166-0.487-0.291l0.001 0.001c-0.133-0.123-0.239-0.273-0.311-0.441l-0.003-0.008c-0.070-0.165-0.11-0.358-0.11-0.559 0-0.006 0-0.012 0-0.018v0.001c-0-0.006-0-0.012-0-0.019 0-0.203 0.044-0.395 0.122-0.568l-0.003 0.009c0.075-0.167 0.189-0.32 0.334-0.449 0.146-0.125 0.318-0.225 0.506-0.29l0.011-0.003c0.192-0.065 0.414-0.103 0.644-0.103 0.008 0 0.015 0 0.023 0h-0.001c0.211-0.004 0.421 0.028 0.618 0.094 0.171 0.064 0.328 0.151 0.464 0.26l-0.144 0.173c-0.010 0.012-0.022 0.023-0.036 0.031l-0.001 0c-0.014 0.009-0.032 0.014-0.050 0.014-0.003 0-0.006-0-0.009-0l0 0c-0.023-0.001-0.045-0.008-0.063-0.019l0.001 0-0.078-0.046-0.107-0.059c-0.099-0.048-0.213-0.084-0.333-0.103l-0.007-0.001c-0.071-0.012-0.152-0.018-0.235-0.018-0.008 0-0.015 0-0.023 0h0.001c-0.005-0-0.011-0-0.017-0-0.165 0-0.324 0.028-0.471 0.080l0.010-0.003c-0.145 0.050-0.269 0.124-0.376 0.218l0.001-0.001c-0.108 0.101-0.19 0.219-0.244 0.347-0.056 0.13-0.088 0.282-0.088 0.441 0 0.005 0 0.011 0 0.016v-0.001c-0 0.005-0 0.011-0 0.017 0 0.161 0.032 0.314 0.091 0.454l-0.003-0.008c0.111 0.263 0.325 0.465 0.59 0.556l0.007 0.002c0.14 0.050 0.291 0.075 0.443 0.073 0.088 0.002 0.176-0.004 0.263-0.015 0.219-0.022 0.414-0.108 0.571-0.239l-0.002 0.001c0.022-0.018 0.051-0.029 0.082-0.030h0zM10.291 30.579c0.003 0.195-0.037 0.39-0.116 0.573-0.077 0.176-0.187 0.324-0.323 0.444l-0.001 0.001c-0.144 0.126-0.317 0.226-0.509 0.291-0.196 0.065-0.421 0.103-0.655 0.103s-0.459-0.038-0.67-0.107l0.015 0.004c-0.196-0.068-0.365-0.168-0.509-0.294l0.002 0.002c-0.137-0.122-0.248-0.272-0.324-0.441l-0.003-0.008c-0.074-0.169-0.117-0.366-0.117-0.574s0.043-0.404 0.12-0.583l-0.004 0.010c0.073-0.167 0.185-0.32 0.328-0.451 0.144-0.123 0.317-0.219 0.507-0.281 0.421-0.14 0.888-0.14 1.31 0 0.191 0.066 0.364 0.165 0.508 0.293 0.272 0.243 0.442 0.594 0.442 0.985 0 0.012-0 0.024-0 0.036l0-0.002zM9.839 30.579c0.004-0.156-0.023-0.312-0.081-0.46-0.105-0.267-0.32-0.471-0.588-0.559l-0.007-0.002c-0.142-0.048-0.306-0.076-0.476-0.076s-0.334 0.028-0.487 0.079l0.011-0.003c-0.141 0.049-0.263 0.124-0.365 0.218l0.001-0.001c-0.1 0.093-0.179 0.208-0.23 0.337l-0.002 0.006c-0.109 0.3-0.109 0.621 0 0.921 0.048 0.127 0.128 0.244 0.233 0.344 0.101 0.094 0.226 0.168 0.365 0.215 0.307 0.098 0.645 0.098 0.952 0 0.138-0.048 0.263-0.122 0.364-0.215 0.104-0.1 0.182-0.218 0.231-0.344 0.058-0.148 0.086-0.304 0.081-0.46zM13.687 31.063l0.044 0.103c0.017-0.037 0.033-0.070 0.050-0.103 0.016-0.035 0.035-0.069 0.056-0.101l1.101-1.709c0.022-0.030 0.041-0.048 0.062-0.055 0.022-0.006 0.047-0.009 0.074-0.009 0.006 0 0.012 0 0.018 0l-0.001-0h0.325v2.781h-0.386v-2.131c-0.001-0.014-0.002-0.031-0.002-0.048s0.001-0.034 0.002-0.050l-0 0.002-1.107 1.733c-0.015 0.027-0.037 0.049-0.064 0.063l-0.001 0c-0.027 0.015-0.059 0.023-0.093 0.023-0 0-0.001 0-0.001 0h-0.062c-0.001 0-0.002 0-0.002 0-0.034 0-0.066-0.009-0.094-0.024l0.001 0c-0.027-0.014-0.049-0.036-0.064-0.062l-0-0.001-1.139-1.745v2.232h-0.373v-2.775h0.325c0.004-0 0.009-0 0.014-0 0.027 0 0.053 0.004 0.078 0.010l-0.002-0c0.026 0.011 0.047 0.029 0.060 0.052l0 0.001 1.124 1.712c0.023 0.031 0.041 0.066 0.057 0.1zM17.83 30.924v1.041h-0.431v-2.777h0.96c0.182-0.003 0.363 0.017 0.537 0.061 0.14 0.034 0.268 0.092 0.379 0.172 0.092 0.072 0.165 0.163 0.214 0.269l0.002 0.004c0.051 0.113 0.076 0.233 0.073 0.355 0 0.004 0 0.008 0 0.012 0 0.253-0.122 0.478-0.31 0.619l-0.002 0.001c-0.109 0.082-0.236 0.145-0.375 0.182l-0.008 0.002c-0.167 0.045-0.343 0.067-0.518 0.064l-0.521-0.008zM17.83 30.626h0.521c0.113 0.001 0.226-0.013 0.333-0.043 0.093-0.026 0.173-0.067 0.244-0.121l-0.002 0.001c0.121-0.097 0.198-0.245 0.198-0.411 0-0.002 0-0.005-0-0.007v0c0.001-0.008 0.001-0.018 0.001-0.028 0-0.072-0.016-0.14-0.046-0.201l0.001 0.003c-0.036-0.076-0.087-0.139-0.15-0.189l-0.001-0.001c-0.144-0.095-0.321-0.152-0.511-0.152-0.024 0-0.048 0.001-0.071 0.003l0.003-0h-0.521v1.145zM23.621 31.97h-0.341c-0.002 0-0.004 0-0.006 0-0.033 0-0.063-0.010-0.089-0.026l0.001 0c-0.024-0.016-0.043-0.038-0.056-0.063l-0-0.001-0.293-0.672h-1.472l-0.304 0.671c-0.012 0.026-0.031 0.047-0.053 0.062l-0.001 0c-0.026 0.018-0.058 0.028-0.092 0.028-0.002 0-0.003-0-0.005-0h-0.34l1.293-2.781h0.448l1.31 2.781zM21.488 30.937h1.215l-0.513-1.132c-0.035-0.072-0.068-0.159-0.094-0.249l-0.003-0.013-0.049 0.145c-0.016 0.044-0.032 0.084-0.047 0.117l-0.509 1.132zM25.483 29.201c0.025 0.012 0.047 0.029 0.064 0.050l0 0 1.886 2.096v-2.159h0.386v2.781h-0.215c-0.003 0-0.006 0-0.009 0-0.029 0-0.057-0.006-0.082-0.016l0.001 0.001c-0.027-0.014-0.049-0.031-0.069-0.052l-0-0-1.883-2.095c0.001 0.014 0.002 0.031 0.002 0.048s-0.001 0.034-0.002 0.050l0-0.002v2.067h-0.386v-2.781h0.228c0.027-0.001 0.053 0.003 0.078 0.012zM30.993 30.864v1.104h-0.431v-1.104l-1.191-1.675h0.386c0.003-0 0.006-0 0.010-0 0.031 0 0.059 0.009 0.084 0.024l-0.001-0c0.023 0.018 0.043 0.039 0.058 0.062l0.745 1.081c0.051 0.071 0.095 0.152 0.129 0.239l0.003 0.007 0.056-0.119c0.021-0.044 0.046-0.086 0.073-0.127l0.735-1.088c0.016-0.023 0.034-0.042 0.055-0.059l0.001-0c0.024-0.017 0.053-0.027 0.085-0.027 0.003 0 0.005 0 0.008 0l-0-0h0.39l-1.194 1.683zM13.474 24.521c0.187 0.020 0.377 0.037 0.569 0.052 2.907-1.111 5.366-2.929 7.070-5.229s2.577-4.975 2.51-7.696l-3.203-2.737c0.651 2.896 0.347 5.89-0.88 8.648-1.227 2.756-3.327 5.167-6.066 6.962z"></path>
<path fill="#8e8f99" style="fill: var(--color1, #8e8f99)" d="M12.329 24.393l0.086 0.015c2.927-1.789 5.159-4.286 6.406-7.17s1.454-6.021 0.592-9.006l-4.564-3.899c1.846 3.205 2.589 6.791 2.142 10.341s-2.064 6.922-4.663 9.719zM27.805 14.862c-0.775 2.989-2.658 5.685-5.369 7.688-0.739 0.553-1.574 1.073-2.453 1.519l-0.098 0.045c2.207-0.554 4.236-1.534 5.93-2.864s3.008-2.975 3.84-4.808l-1.85-1.58z"></path>
<path fill="#8e8f99" style="fill: var(--color1, #8e8f99)" d="M27.079 14.422l-2.635-2.251c-0.051 2.567-0.905 5.075-2.473 7.264s-3.796 3.98-6.448 5.185h0.013c0.591 0 1.182-0.030 1.769-0.090 2.48-0.865 4.67-2.24 6.375-4.004s2.874-3.861 3.4-6.103zM12.711 2.69l-3.142-2.69c-2.81 0.928-5.227 2.558-6.934 4.68-1.708 2.121-2.627 4.631-2.635 7.206 0.010 2.843 1.131 5.604 3.184 7.842s4.92 3.828 8.15 4.518c2.883-3.001 4.571-6.71 4.819-10.587s-0.958-7.719-3.442-10.971zM34.341 14.008c-0.012-3.375-1.585-6.608-4.379-8.994-2.792-2.386-6.576-3.731-10.526-3.741-0.010-0-0.022-0-0.034-0-1.896 0-3.719 0.31-5.422 0.883l0.12-0.035 19.245 16.443c0.627-1.338 0.993-2.905 0.995-4.557v-0.001z"></path>
</symbol>
<symbol id="icon-group" viewBox="0 0 28 32">
<path fill="#8e8f99" style="fill: var(--color1, #8e8f99)" d="M4.085 0l4.771 4.545-8.857-0.004v22.053h23.149v-8.432l4.766 4.541v-22.703h-23.83zM22.939 17.629l-13.528-12.889h13.528v12.889zM18.739 23.368h-15.076v-14.832h1.066v13.828h14.011v1.005zM6.67 30.681l-0.562-1.156h-0.464l0.814 1.529v0.891h0.42v-0.892l0.815-1.529h-0.462l-0.562 1.155zM8.741 29.525h0.099l0.914 2.42h-0.438l-0.196-0.566h-0.937l-0.195 0.566h-0.437l0.911-2.42h0.279zM8.297 31.048h0.709l-0.354-1.027-0.354 1.027zM11.222 30.646c-0.007-0.008-0.024-0.030-0.041-0.052l-0.011-0.015c-0.054-0.069-0.102-0.147-0.142-0.23l-0.003-0.008c-0.032-0.070-0.051-0.153-0.051-0.239 0-0 0-0 0-0.001v0c0-0.126 0.026-0.234 0.078-0.325s0.128-0.162 0.218-0.208l0.003-0.001c0.095-0.050 0.207-0.075 0.334-0.075 0.123 0 0.229 0.025 0.318 0.075 0.168 0.089 0.281 0.263 0.281 0.463 0 0.075-0.016 0.146-0.044 0.21l0.001-0.003c-0.030 0.067-0.069 0.124-0.116 0.173l0-0c-0.051 0.054-0.106 0.103-0.165 0.146l-0.003 0.002-0.168 0.123 0.479 0.565c0.066-0.126 0.104-0.276 0.104-0.435 0-0.006-0-0.012-0-0.018v0.001h0.346c0 0.118-0.012 0.229-0.035 0.334-0.032 0.152-0.094 0.287-0.179 0.403l0.002-0.003 0.354 0.419h-0.463l-0.141-0.165c-0.071 0.055-0.154 0.101-0.242 0.134l-0.007 0.002c-0.109 0.040-0.235 0.063-0.367 0.063-0.003 0-0.006 0-0.009-0h0c-0.161 0-0.3-0.029-0.417-0.088-0.113-0.055-0.206-0.138-0.271-0.24l-0.002-0.003c-0.060-0.098-0.095-0.216-0.095-0.343 0-0.004 0-0.008 0-0.012v0.001c0-0.099 0.020-0.185 0.061-0.259 0.042-0.076 0.097-0.146 0.168-0.21 0.066-0.059 0.14-0.118 0.225-0.178zM11.421 30.89l-0.050 0.036c-0.051 0.039-0.094 0.085-0.13 0.136l-0.001 0.002c-0.043 0.063-0.068 0.14-0.068 0.224 0 0.067 0.017 0.131 0.046 0.187l-0.001-0.002c0.032 0.058 0.078 0.105 0.133 0.137l0.002 0.001c0.060 0.032 0.13 0.051 0.205 0.051 0.004 0 0.009-0 0.013-0h-0.001c0.092 0 0.181-0.020 0.268-0.061 0.047-0.023 0.087-0.049 0.124-0.078l-0.002 0.001-0.538-0.633zM11.516 30.448l0.148-0.099c0.059-0.036 0.109-0.082 0.149-0.135l0.001-0.001c0.028-0.045 0.045-0.1 0.045-0.159 0-0.004-0-0.008-0-0.012l0 0.001c-0.004-0.13-0.111-0.233-0.241-0.233-0.005 0-0.010 0-0.014 0l0.001-0c-0.002-0-0.005-0-0.007-0-0.099 0-0.184 0.058-0.223 0.142l-0.001 0.002c-0.018 0.040-0.029 0.088-0.029 0.137 0 0.058 0.014 0.113 0.040 0.161l-0.001-0.002c0.025 0.052 0.060 0.107 0.105 0.165l0.027 0.035zM15.751 31.158h-0.416c-0.009 0.099-0.037 0.19-0.078 0.272l0.002-0.004c-0.038 0.072-0.096 0.128-0.166 0.164l-0.002 0.001c-0.077 0.036-0.167 0.057-0.262 0.057-0.009 0-0.018-0-0.027-0.001l0.001 0c-0.004 0-0.009 0-0.014 0-0.087 0-0.169-0.022-0.24-0.060l0.003 0.001c-0.071-0.040-0.13-0.096-0.172-0.163l-0.001-0.002c-0.045-0.073-0.079-0.158-0.098-0.249l-0.001-0.005c-0.020-0.096-0.032-0.207-0.032-0.32 0-0.004 0-0.009 0-0.013v0.001-0.204c0-0.129 0.012-0.243 0.035-0.343s0.060-0.185 0.108-0.254c0.045-0.066 0.105-0.119 0.176-0.155l0.003-0.001c0.069-0.034 0.15-0.053 0.236-0.053 0.005 0 0.009 0 0.014 0h-0.001c0.116 0 0.21 0.020 0.283 0.060s0.126 0.095 0.163 0.17c0.037 0.074 0.062 0.163 0.073 0.267h0.415c-0.015-0.16-0.063-0.307-0.139-0.435l0.003 0.005c-0.074-0.125-0.179-0.226-0.305-0.292l-0.004-0.002c-0.133-0.068-0.291-0.107-0.457-0.107-0.011 0-0.022 0-0.033 0l0.002-0c-0.152 0-0.289 0.027-0.411 0.080s-0.225 0.129-0.311 0.232c-0.087 0.101-0.155 0.221-0.197 0.353l-0.002 0.007c-0.046 0.14-0.068 0.298-0.068 0.472v0.202c0 0.174 0.022 0.331 0.067 0.472s0.111 0.261 0.196 0.361c0.085 0.099 0.188 0.175 0.307 0.229 0.12 0.053 0.255 0.080 0.404 0.080 0.195 0 0.361-0.035 0.497-0.106s0.242-0.168 0.317-0.291c0.075-0.124 0.12-0.266 0.133-0.424zM18.059 30.802v-0.133c0-0.182-0.024-0.347-0.073-0.49-0.045-0.143-0.115-0.267-0.206-0.373l0.001 0.001c-0.086-0.1-0.192-0.179-0.312-0.232l-0.006-0.002c-0.123-0.054-0.259-0.082-0.409-0.082-0.148 0-0.285 0.027-0.407 0.082-0.123 0.053-0.228 0.131-0.318 0.234-0.088 0.102-0.157 0.226-0.206 0.371-0.047 0.14-0.074 0.301-0.074 0.468 0 0.008 0 0.015 0 0.023v-0.001 0.133c0 0.183 0.024 0.347 0.074 0.492 0.048 0.143 0.119 0.266 0.21 0.372l-0.001-0.001c0.090 0.102 0.196 0.18 0.317 0.235 0.123 0.053 0.259 0.080 0.408 0.080s0.286-0.027 0.409-0.080c0.123-0.054 0.229-0.133 0.316-0.235 0.088-0.102 0.157-0.225 0.204-0.37s0.072-0.309 0.072-0.492zM17.642 30.666v0.136c0 0.136-0.014 0.255-0.040 0.36-0.023 0.1-0.062 0.189-0.115 0.267l0.002-0.003c-0.047 0.068-0.108 0.122-0.18 0.16l-0.003 0.001c-0.069 0.034-0.151 0.053-0.237 0.053-0.004 0-0.008-0-0.012-0h0.001c-0.003 0-0.007 0-0.011 0-0.086 0-0.167-0.020-0.239-0.055l0.003 0.001c-0.075-0.040-0.137-0.094-0.185-0.16l-0.001-0.002c-0.052-0.076-0.092-0.164-0.115-0.259l-0.001-0.005c-0.026-0.102-0.040-0.22-0.040-0.341 0-0.007 0-0.013 0-0.020v0.001-0.136c0-0.135 0.014-0.254 0.040-0.357s0.065-0.191 0.115-0.261c0.047-0.067 0.109-0.121 0.181-0.158l0.003-0.001c0.069-0.035 0.151-0.055 0.237-0.055 0.003 0 0.007 0 0.010 0h-0c0.092 0 0.174 0.018 0.248 0.054s0.134 0.088 0.184 0.16c0.051 0.069 0.090 0.157 0.115 0.261 0.027 0.104 0.040 0.223 0.040 0.357z"></path>
</symbol>
<symbol id="icon-Logo-2" viewBox="0 0 59 32">
<path fill="#8e8f99" style="fill: var(--color1, #8e8f99)" d="M15.31 25.356c0.14 0.157 0.215 0.352 0.211 0.553 0.007 0.131-0.019 0.262-0.075 0.383s-0.143 0.229-0.252 0.315c-0.239 0.162-0.534 0.258-0.851 0.258-0.035 0-0.070-0.001-0.105-0.004l0.005 0h-1.671v-3.504h1.637c0.029-0.002 0.063-0.003 0.097-0.003 0.301 0 0.581 0.088 0.817 0.239l-0.006-0.004c0.105 0.080 0.189 0.181 0.245 0.294s0.080 0.238 0.073 0.362c0.010 0.193-0.058 0.383-0.19 0.535-0.129 0.138-0.3 0.236-0.492 0.273l-0.006 0.001c0.222 0.037 0.422 0.143 0.565 0.299zM13.349 24.827h0.7c0.159 0.011 0.317-0.030 0.445-0.116 0.051-0.041 0.092-0.093 0.119-0.153l0.001-0.003c0.020-0.045 0.032-0.097 0.032-0.152 0-0.012-0.001-0.025-0.002-0.037l0 0.002c0.001-0.009 0.001-0.019 0.001-0.029 0-0.057-0.012-0.11-0.034-0.159l0.001 0.003c-0.028-0.062-0.067-0.114-0.116-0.156l-0.001-0c-0.113-0.075-0.252-0.12-0.401-0.12-0.020 0-0.040 0.001-0.060 0.002l0.003-0h-0.689v0.919zM14.562 26.171c0.055-0.042 0.098-0.096 0.128-0.158l0.001-0.003c0.024-0.049 0.037-0.107 0.037-0.168 0-0.010-0-0.019-0.001-0.028l0 0.001c0.001-0.007 0.001-0.016 0.001-0.025 0-0.063-0.014-0.122-0.040-0.175l0.001 0.002c-0.032-0.065-0.076-0.119-0.13-0.161l-0.001-0.001c-0.121-0.080-0.269-0.128-0.429-0.128-0.016 0-0.033 0-0.049 0.002l0.002-0h-0.734v0.964h0.743c0.167 0.009 0.333-0.034 0.47-0.122zM18.657 26.863l-0.911-1.37h-0.343v1.369h-0.783v-3.504h1.483c0.032-0.002 0.069-0.004 0.107-0.004 0.348 0 0.67 0.113 0.93 0.304l-0.004-0.003c0.207 0.19 0.333 0.441 0.353 0.707s-0.066 0.529-0.242 0.743c-0.183 0.189-0.433 0.315-0.707 0.357l0.97 1.4h-0.851zM17.403 25.015h0.641c0.445 0 0.667-0.177 0.667-0.531 0.001-0.009 0.001-0.019 0.001-0.029 0-0.066-0.014-0.129-0.038-0.187l0.001 0.003c-0.030-0.071-0.073-0.132-0.127-0.181l-0-0c-0.122-0.090-0.275-0.144-0.441-0.144-0.022 0-0.044 0.001-0.065 0.003l0.003-0h-0.649l0.008 1.066zM22.939 26.157h-1.562l-0.276 0.705h-0.821l1.434-3.465h0.888l1.428 3.465h-0.822l-0.27-0.705zM22.73 25.627l-0.571-1.479-0.57 1.479h1.141zM28.299 26.863h-0.777l-1.744-2.383v2.383h-0.776v-3.505h0.776l1.743 2.397v-2.397h0.778v3.504zM32.737 26.023c-0.169 0.27-0.409 0.482-0.693 0.614l-0.010 0.004c-0.338 0.154-0.714 0.23-1.093 0.221h-1.385v-3.504h1.385c0.019-0.001 0.042-0.001 0.064-0.001 0.372 0 0.726 0.080 1.045 0.223l-0.016-0.006c0.298 0.135 0.543 0.349 0.703 0.611 0.16 0.285 0.243 0.6 0.243 0.919-0.001 0.338-0.091 0.655-0.248 0.928l0.005-0.009zM31.847 25.94c0.211-0.216 0.341-0.511 0.344-0.836v-0c-0.003-0.326-0.133-0.62-0.344-0.836l0 0c-0.242-0.188-0.55-0.301-0.884-0.301-0.031 0-0.063 0.001-0.094 0.003l0.004-0h-0.54v2.269h0.54c0.027 0.002 0.058 0.003 0.090 0.003 0.334 0 0.642-0.113 0.887-0.303l-0.003 0.002zM23.426 3.867s10.038 3.411 9.825 8.349v8.351s-10.031-3.414-9.822-8.351l-0.003-8.349zM42.194 18.611c1.895-1.175 4.089-1.903 6.378-2.116v-2.614c-2.638 0.915-4.875 2.574-6.378 4.73z"></path>
<path fill="#8e8f99" style="fill: var(--color1, #8e8f99)" d="M41.055 19.399c1.551-2.813 4.242-4.983 7.517-6.065v-7.533s-14.296 4.86-13.994 11.891v11.889s0.637-0.217 1.639-0.625c0-0.38 0-0.763 0.046-1.149 0.296-3.264 2.019-6.289 4.792-8.409z"></path>
<path fill="#8e8f99" style="fill: var(--color1, #8e8f99)" d="M39.695 23.815c0.084-0.899 0.261-1.726 0.523-2.513l-0.023 0.079c-1.727 1.831-2.772 4.103-2.99 6.497-0.021 0.226-0.032 0.451-0.038 0.685 1.198-0.515 2.101-0.951 2.987-1.418l-0.237 0.114c-0.171-0.73-0.269-1.569-0.269-2.43 0-0.357 0.017-0.709 0.050-1.057l-0.003 0.044zM40.263 23.858c-0.028 0.289-0.044 0.624-0.044 0.963 0 0.763 0.080 1.506 0.233 2.224l-0.012-0.070c3.906-2.104 8.294-5.354 8.125-9.283v-0.343c-2.79 0.282-5.401 1.38-7.431 3.126-0.448 0.989-0.757 2.136-0.868 3.341l-0.003 0.042z"></path>
</symbol>
<symbol id="icon-Logo-3" viewBox="0 0 59 32">
<path fill="#8e8f99" style="fill: var(--color1, #8e8f99)" d="M30.589 15.682c-0.219-0.282-0.35-0.64-0.35-1.029 0-0.038 0.001-0.076 0.004-0.114l-0 0.005v-1.65c0-0.506 0.115-0.89 0.345-1.153s0.624-0.394 1.183-0.393c0.526 0 0.898 0.112 1.119 0.336 0.24 0.286 0.357 0.635 0.33 0.987v0.389h-0.939v-0.393c0.003-0.129-0.006-0.257-0.027-0.385-0.016-0.093-0.064-0.172-0.133-0.228l-0.001-0.001c-0.084-0.056-0.188-0.090-0.3-0.090-0.014 0-0.029 0.001-0.043 0.002l0.002-0c-0.012-0.001-0.027-0.001-0.041-0.001-0.118 0-0.228 0.036-0.319 0.097l0.002-0.001c-0.078 0.062-0.133 0.149-0.155 0.249l-0.001 0.003c-0.024 0.113-0.037 0.243-0.037 0.376 0 0.011 0 0.023 0 0.034l-0-0.002v2.003c-0.002 0.023-0.003 0.049-0.003 0.075 0 0.178 0.046 0.346 0.126 0.492l-0.003-0.005c0.049 0.060 0.112 0.107 0.184 0.136l0.003 0.001c0.076 0.029 0.16 0.040 0.243 0.031 0.12 0.009 0.24-0.024 0.333-0.091 0.072-0.060 0.123-0.145 0.14-0.241l0-0.002c0.022-0.133 0.032-0.267 0.029-0.401v-0.406h0.94v0.371c0.002 0.029 0.003 0.062 0.003 0.096 0 0.357-0.124 0.685-0.331 0.944l0.002-0.003c-0.215 0.245-0.583 0.367-1.124 0.367s-0.949-0.131-1.181-0.403zM34.501 15.699c-0.237-0.257-0.356-0.631-0.356-1.127v-1.736c0-0.49 0.119-0.861 0.356-1.113s0.634-0.377 1.191-0.376c0.553 0 0.947 0.126 1.185 0.376 0.238 0.252 0.358 0.623 0.358 1.113v1.736c0 0.49-0.121 0.866-0.362 1.125s-0.634 0.387-1.181 0.387-0.951-0.131-1.191-0.386zM36.129 15.282c0.085-0.161 0.124-0.337 0.113-0.514v-2.126c0.001-0.017 0.002-0.036 0.002-0.056 0-0.164-0.042-0.318-0.115-0.452l0.002 0.005c-0.050-0.062-0.114-0.109-0.188-0.138l-0.003-0.001c-0.055-0.021-0.118-0.034-0.184-0.034-0.023 0-0.045 0.001-0.067 0.004l0.003-0c-0.019-0.002-0.041-0.004-0.063-0.004-0.067 0-0.131 0.012-0.19 0.035l0.004-0.001c-0.078 0.029-0.143 0.076-0.193 0.137l-0.001 0.001c-0.086 0.157-0.125 0.33-0.113 0.503v2.136c-0.012 0.177 0.027 0.353 0.113 0.514 0.055 0.054 0.122 0.097 0.198 0.127 0.072 0.029 0.155 0.046 0.241 0.046s0.17-0.017 0.246-0.047l-0.004 0.002c0.076-0.030 0.143-0.074 0.198-0.127v-0.010zM38.365 11.398h1.011l0.761 3.203 0.778-3.203h0.985l0.099 4.623h-0.728l-0.078-3.213-0.751 3.213h-0.583l-0.778-3.225-0.072 3.225h-0.735l0.091-4.623zM43.133 11.398h1.576c0.907 0 1.362 0.438 1.362 1.313 0 0.838-0.478 1.257-1.434 1.256h-0.537v2.055h-0.973l0.006-4.623zM44.479 13.374c0.096 0.010 0.194 0.003 0.286-0.023 0.093-0.025 0.177-0.067 0.249-0.123 0.090-0.122 0.144-0.276 0.144-0.442 0-0.028-0.002-0.056-0.005-0.083l0 0.003c0.001-0.016 0.001-0.035 0.001-0.053 0-0.13-0.017-0.257-0.050-0.377l0.002 0.010c-0.016-0.049-0.040-0.092-0.072-0.127l0 0c-0.034-0.038-0.075-0.069-0.121-0.092l-0.002-0.001c-0.113-0.047-0.244-0.075-0.382-0.075-0.019 0-0.037 0.001-0.055 0.002l0.003-0h-0.377v1.382h0.377zM47.474 11.398h1.045l1.072 4.623h-0.907l-0.211-1.066h-0.932l-0.218 1.066h-0.92l1.072-4.623zM48.367 14.419l-0.364-1.941-0.364 1.941h0.727zM50.456 11.398h0.681l1.303 2.637v-2.637h0.808v4.623h-0.648l-1.311-2.753v2.753h-0.834l0.002-4.623zM55.139 14.258l-1.083-2.854h0.913l0.661 1.833 0.621-1.833h0.893l-1.070 2.854v1.762h-0.934v-1.762zM32.090 18.042v0.242h-0.794v1.878h-0.332v-1.878h-0.798v-0.242h1.924zM34.578 20.162h-0.257c-0.002 0-0.004 0-0.007 0-0.024 0-0.047-0.008-0.065-0.020l0 0c-0.019-0.012-0.033-0.028-0.043-0.048l-0-0.001-0.23-0.503h-1.101l-0.23 0.503c-0.007 0.022-0.019 0.042-0.034 0.057v0c-0.019 0.013-0.042 0.020-0.066 0.020-0.002 0-0.004-0-0.007-0h-0.257l0.973-2.12h0.338l0.985 2.111zM32.967 19.375h0.918l-0.389-0.863c-0.025-0.054-0.050-0.121-0.070-0.189l-0.003-0.011c-0.014 0.040-0.025 0.079-0.037 0.113l-0.035 0.089-0.385 0.861zM36.255 19.954c0.061 0.003 0.122 0.003 0.183 0 0.053-0.005 0.105-0.013 0.156-0.025 0.056-0.012 0.103-0.025 0.148-0.041l-0.008 0.003c0.043-0.015 0.086-0.034 0.13-0.053v-0.477h-0.389c-0.001 0-0.003 0-0.005 0-0.008 0-0.017-0.001-0.024-0.004l0.001 0c-0.009-0.003-0.017-0.008-0.024-0.013l0 0c-0.006-0.005-0.011-0.010-0.015-0.017l-0-0c-0.003-0.006-0.005-0.012-0.005-0.019 0-0.001 0-0.002 0-0.002v0-0.163h0.755v0.813c-0.118 0.074-0.255 0.133-0.4 0.171l-0.010 0.002c-0.080 0.020-0.161 0.034-0.243 0.043-0.085 0.009-0.184 0.014-0.284 0.014-0 0-0 0-0 0v0c-0.003 0-0.007 0-0.011 0-0.172 0-0.336-0.029-0.489-0.083l0.010 0.003c-0.15-0.052-0.279-0.127-0.391-0.223l0.002 0.001c-0.104-0.092-0.189-0.204-0.249-0.33l-0.003-0.006c-0.056-0.125-0.089-0.272-0.089-0.426 0-0.005 0-0.010 0-0.015v0.001c-0-0.004-0-0.009-0-0.013 0-0.155 0.032-0.303 0.090-0.437l-0.003 0.007c0.056-0.126 0.142-0.24 0.251-0.336 0.111-0.095 0.243-0.17 0.389-0.22 0.167-0.054 0.344-0.081 0.522-0.079 0.091 0 0.181 0.006 0.27 0.018 0.079 0.011 0.157 0.029 0.231 0.054 0.069 0.022 0.134 0.050 0.194 0.084s0.117 0.070 0.17 0.111l-0.093 0.131c-0.008 0.012-0.019 0.022-0.032 0.028l-0 0c-0.013 0.007-0.028 0.011-0.044 0.011h-0c-0.022-0.001-0.043-0.007-0.061-0.017l0.001 0c-0.039-0.019-0.070-0.035-0.1-0.053l0.005 0.003c-0.037-0.020-0.080-0.040-0.125-0.055l-0.006-0.002c-0.050-0.018-0.11-0.034-0.171-0.046l-0.008-0.001c-0.070-0.012-0.151-0.018-0.234-0.018-0.005 0-0.009 0-0.014 0h0.001c-0.003-0-0.008-0-0.012-0-0.13 0-0.255 0.022-0.372 0.061l0.008-0.002c-0.111 0.038-0.206 0.096-0.286 0.169l0.001-0.001c-0.081 0.076-0.143 0.166-0.182 0.263-0.041 0.105-0.065 0.227-0.065 0.354s0.024 0.249 0.068 0.36l-0.002-0.007c0.043 0.099 0.109 0.19 0.195 0.267 0.080 0.073 0.177 0.13 0.284 0.168 0.124 0.037 0.255 0.051 0.385 0.042zM39.357 19.921h1.063v0.242h-1.387v-2.12h0.333l-0.008 1.878zM41.524 20.162h-0.333v-2.12h0.333v2.12zM42.761 18.052c0.020 0.010 0.037 0.023 0.051 0.039l0 0 1.422 1.598c-0.001-0.011-0.001-0.024-0.001-0.038s0.001-0.026 0.002-0.039l-0 0.002v-1.58h0.29v2.129h-0.167c-0.003 0-0.007 0-0.011 0-0.022 0-0.043-0.005-0.062-0.013l0.001 0c-0.020-0.011-0.038-0.024-0.052-0.040l-0-0-1.42-1.597v1.649h-0.278v-2.121h0.173c0.019 0 0.038 0.003 0.055 0.010zM46.974 18.042v0.233h-1.179v0.7h0.955v0.225h-0.955v0.723h1.179v0.233h-1.522v-2.115h1.522zM12.111 4.948l14.773 3.619v12.683l-14.773-3.617v-12.686zM11.164 3.867v14.382l16.666 4.085v-14.38l-16.666-4.086z"></path>
<path fill="#8e8f99" style="fill: var(--color1, #8e8f99)" d="M20.096 29.010l-16.667-4.088v-14.381l16.667 4.086v14.383z"></path>
<path fill="#8e8f99" style="fill: var(--color1, #8e8f99)" d="M11.44 4.785l14.58 3.574-6.2 5.352-14.582-3.576 6.202-5.35zM11.164 3.867l-7.735 6.674 16.667 4.086 7.734-6.674-16.666-4.086zM21.034 28.2l6.795-5.865-6.796-1.667v7.533z"></path>
</symbol>
<symbol id="icon-Logo" viewBox="0 0 59 32">
<path fill="#8e8f99" style="fill: var(--color1, #8e8f99)" d="M13.759 12.296h-0.002c-1.363 0-2.469 0.997-2.469 2.225v0.002c0 1.229 1.106 2.225 2.469 2.225h0.002c1.363 0 2.469-0.996 2.469-2.225v-0.002c0-1.229-1.105-2.225-2.469-2.225zM31.978 11.585c-0.003-1.707-0.757-3.343-2.096-4.551-1.339-1.207-3.153-1.887-5.047-1.891-1.894 0.003-3.709 0.683-5.049 1.89s-2.094 2.844-2.097 4.551v9.414s14.287-1.434 14.289-9.412v-0.002zM6.286 24.088c0.003 1.188 0.528 2.326 1.459 3.166s2.194 1.314 3.511 1.317c1.317-0.003 2.579-0.477 3.511-1.317s1.456-1.977 1.46-3.166v-6.549s-9.942 0.998-9.942 6.548zM11.257 25.262c-0.257 0-0.509-0.069-0.723-0.198-0.209-0.125-0.373-0.305-0.476-0.52l-0.003-0.007c-0.063-0.132-0.099-0.286-0.099-0.449 0-0.081 0.009-0.16 0.026-0.236l-0.001 0.007c0.056-0.241 0.182-0.446 0.355-0.6l0.001-0.001c0.181-0.161 0.408-0.275 0.659-0.32l0.008-0.001c0.253-0.046 0.514-0.022 0.752 0.067s0.441 0.239 0.584 0.432c0.143 0.193 0.219 0.42 0.219 0.652 0.001 0.154-0.033 0.308-0.098 0.451s-0.161 0.273-0.282 0.382c-0.119 0.107-0.26 0.194-0.414 0.252l-0.009 0.003c-0.148 0.057-0.319 0.090-0.498 0.090-0.001 0-0.001 0-0.002 0h0v-0.005zM20.348 23.151v2.438h-0.502v-2.438h0.502zM21.319 24.193v0.392h-1.109v-0.392h1.109zM21.436 23.151v0.393h-1.225v-0.393h1.225zM23.73 24.313v0.115c0 0.186-0.025 0.352-0.075 0.499-0.048 0.146-0.121 0.271-0.214 0.379l0.001-0.001c-0.091 0.103-0.201 0.181-0.328 0.236-0.12 0.052-0.259 0.082-0.405 0.082-0.005 0-0.011-0-0.016-0h0.001c-0.153 0-0.293-0.027-0.42-0.082-0.129-0.057-0.238-0.136-0.327-0.235l-0.001-0.001c-0.093-0.106-0.167-0.232-0.214-0.369l-0.002-0.008c-0.048-0.142-0.076-0.306-0.076-0.477 0-0.008 0-0.016 0-0.023v0.001-0.115c0-0.186 0.025-0.353 0.075-0.499 0.048-0.145 0.121-0.271 0.214-0.378l-0.001 0.001c0.093-0.104 0.202-0.183 0.328-0.238 0.127-0.055 0.267-0.082 0.421-0.082 0.154 0 0.294 0.027 0.42 0.082 0.127 0.055 0.237 0.134 0.328 0.238 0.093 0.104 0.164 0.229 0.214 0.377 0.051 0.146 0.077 0.312 0.077 0.498zM23.222 24.429v-0.119c0-0.129-0.011-0.243-0.035-0.341-0.021-0.094-0.057-0.177-0.106-0.251l0.002 0.003c-0.042-0.064-0.099-0.115-0.165-0.15l-0.002-0.001c-0.063-0.032-0.137-0.052-0.216-0.052-0.003 0-0.007 0-0.010 0h0c-0.085 0-0.16 0.017-0.226 0.051-0.068 0.037-0.124 0.088-0.165 0.149l-0.001 0.002c-0.046 0.071-0.081 0.154-0.101 0.243l-0.001 0.005c-0.022 0.096-0.035 0.206-0.035 0.32 0 0.008 0 0.015 0 0.022v-0.001 0.119c0 0.129 0.011 0.242 0.035 0.342 0.023 0.098 0.058 0.181 0.104 0.25 0.046 0.067 0.102 0.118 0.167 0.152s0.141 0.052 0.226 0.052c0.085 0 0.16-0.017 0.226-0.051 0.068-0.037 0.124-0.088 0.165-0.151l0.001-0.002c0.045-0.069 0.079-0.151 0.102-0.25 0.022-0.097 0.035-0.207 0.035-0.321 0-0.007-0-0.014-0-0.022v0.001zM25.36 24.951c0-0.002 0-0.003 0-0.005 0-0.040-0.007-0.079-0.021-0.114l0.001 0.002c-0.015-0.039-0.039-0.072-0.070-0.097l-0-0c-0.042-0.034-0.090-0.064-0.142-0.087l-0.004-0.002c-0.065-0.030-0.146-0.061-0.228-0.086l-0.015-0.004c-0.128-0.041-0.232-0.082-0.334-0.128l0.019 0.008c-0.1-0.045-0.186-0.097-0.264-0.158l0.003 0.002c-0.072-0.057-0.131-0.127-0.175-0.206l-0.002-0.004c-0.040-0.077-0.064-0.168-0.064-0.264 0-0.004 0-0.008 0-0.012v0.001c-0-0.002-0-0.005-0-0.008 0-0.098 0.025-0.191 0.068-0.271l-0.002 0.003c0.045-0.084 0.107-0.155 0.187-0.214 0.080-0.061 0.175-0.107 0.285-0.139 0.111-0.032 0.231-0.049 0.363-0.049 0.179 0 0.337 0.033 0.47 0.097s0.238 0.154 0.311 0.266c0.074 0.113 0.112 0.242 0.112 0.387h-0.499c0-0.003 0-0.006 0-0.009 0-0.066-0.017-0.127-0.046-0.181l0.001 0.002c-0.031-0.056-0.076-0.1-0.132-0.128l-0.002-0.001c-0.060-0.030-0.132-0.047-0.207-0.047-0.006 0-0.012 0-0.019 0l0.001-0c-0.005-0-0.011-0-0.017-0-0.072 0-0.141 0.015-0.204 0.042l0.003-0.001c-0.054 0.022-0.099 0.059-0.131 0.105l-0.001 0.001c-0.027 0.040-0.043 0.090-0.043 0.143 0 0.002 0 0.003 0 0.005v-0c0 0.041 0.010 0.079 0.030 0.112 0.025 0.037 0.057 0.069 0.093 0.093l0.001 0.001c0.041 0.029 0.091 0.057 0.152 0.082s0.13 0.051 0.209 0.075c0.133 0.040 0.25 0.085 0.35 0.135s0.186 0.106 0.254 0.169c0.069 0.063 0.119 0.133 0.154 0.213s0.051 0.169 0.051 0.27c0 0.007 0 0.015 0 0.023 0 0.194-0.095 0.366-0.24 0.473l-0.002 0.001c-0.078 0.058-0.171 0.102-0.279 0.132s-0.229 0.046-0.363 0.046c-0.12 0-0.239-0.016-0.357-0.047-0.122-0.033-0.228-0.083-0.324-0.148l0.004 0.002c-0.094-0.064-0.17-0.147-0.226-0.244l-0.002-0.004c-0.057-0.101-0.085-0.219-0.085-0.357h0.504c0 0.076 0.011 0.14 0.035 0.193 0.023 0.051 0.056 0.094 0.098 0.126l0.001 0.001c0.044 0.032 0.095 0.056 0.151 0.070l0.003 0.001c0.060 0.015 0.126 0.022 0.197 0.022 0.006 0 0.012 0 0.019 0 0.070 0 0.138-0.014 0.199-0.038l-0.004 0.001c0.099-0.040 0.167-0.135 0.167-0.246 0-0.001 0-0.003-0-0.004v0zM27.294 23.151v2.438h-0.501v-2.438h0.501zM28.044 23.151v0.393h-1.989v-0.393h1.989zM29.966 25.197v0.392h-1.297v-0.392h1.297zM28.833 23.151v2.438h-0.503v-2.438h0.503zM29.797 24.144v0.382h-1.129v-0.382h1.129zM29.964 23.151v0.393h-1.296v-0.393h1.296zM30.259 23.151h0.909c0.187 0 0.347 0.028 0.481 0.083 0.135 0.056 0.239 0.139 0.311 0.248s0.109 0.244 0.109 0.403c0 0.131-0.022 0.243-0.067 0.337-0.044 0.093-0.107 0.171-0.184 0.232l-0.001 0.001c-0.080 0.061-0.173 0.111-0.273 0.145l-0.007 0.002-0.159 0.084h-0.79l-0.003-0.392h0.587c0.005 0 0.011 0 0.017 0 0.074 0 0.144-0.017 0.206-0.048l-0.003 0.001c0.056-0.030 0.101-0.075 0.13-0.129l0.001-0.002c0.029-0.054 0.045-0.118 0.045-0.185 0-0.003-0-0.006-0-0.010v0c0-0.003 0-0.007 0-0.011 0-0.070-0.016-0.135-0.045-0.194l0.001 0.003c-0.029-0.057-0.075-0.102-0.131-0.13l-0.002-0.001c-0.061-0.029-0.132-0.046-0.207-0.046-0.006 0-0.011 0-0.017 0l0.001-0h-0.407v2.045h-0.502v-2.438zM31.621 25.589l-0.555-1.087 0.53-0.003 0.563 1.067v0.023h-0.537zM34.258 24.721h-0.621v-0.392h0.621c0.006 0 0.013 0 0.020 0 0.078 0 0.151-0.017 0.217-0.049l-0.003 0.001c0.057-0.030 0.103-0.076 0.131-0.133l0.001-0.002c0.026-0.058 0.041-0.126 0.041-0.197s-0.015-0.139-0.043-0.201l0.001 0.003c-0.029-0.063-0.074-0.115-0.131-0.15l-0.001-0.001c-0.062-0.036-0.137-0.058-0.216-0.058-0.006 0-0.013 0-0.019 0l0.001-0h-0.447v2.045h-0.502v-2.438h0.949c0.191 0 0.354 0.034 0.491 0.104 0.137 0.068 0.242 0.162 0.314 0.283s0.109 0.258 0.109 0.413c0 0.158-0.036 0.294-0.109 0.409s-0.177 0.204-0.314 0.266c-0.137 0.063-0.3 0.094-0.491 0.094zM37.154 25.197v0.392h-1.297v-0.392h1.297zM36.021 23.151v2.438h-0.503v-2.438h0.503zM36.985 24.144v0.382h-1.128v-0.382h1.129zM37.153 23.151v0.393h-1.295v-0.393h1.295zM38.571 23.151v2.438h-0.501v-2.438h0.501zM39.321 23.151v0.393h-1.989v-0.393h1.989zM41.242 25.197v0.392h-1.297v-0.392h1.297zM40.109 23.151v2.438h-0.502v-2.438h0.502zM41.073 24.144v0.382h-1.128v-0.382h1.128zM41.241 23.151v0.393h-1.295v-0.393h1.295zM41.535 23.151h0.909c0.187 0 0.347 0.028 0.481 0.083s0.239 0.139 0.311 0.248c0.072 0.109 0.109 0.244 0.109 0.403 0 0.131-0.023 0.243-0.067 0.337s-0.107 0.171-0.184 0.232l-0.001 0.001c-0.080 0.061-0.173 0.111-0.273 0.145l-0.007 0.002-0.159 0.084h-0.79l-0.003-0.392h0.588c0.005 0 0.010 0 0.016 0 0.074 0 0.144-0.017 0.206-0.048l-0.003 0.001c0.056-0.030 0.101-0.075 0.13-0.129l0.001-0.002c0.029-0.054 0.046-0.118 0.046-0.186 0-0.003-0-0.006-0-0.008v0c0-0.003 0-0.007 0-0.010 0-0.070-0.016-0.136-0.045-0.195l0.001 0.003c-0.029-0.057-0.075-0.102-0.13-0.13l-0.002-0.001c-0.061-0.029-0.132-0.046-0.207-0.046-0.006 0-0.011 0-0.017 0l0.001-0h-0.407v2.045h-0.502v-2.438zM42.898 25.589l-0.556-1.087 0.531-0.003 0.562 1.067v0.023h-0.537zM45.001 24.951c0-0.001 0-0.002 0-0.004 0-0.041-0.008-0.080-0.021-0.116l0.001 0.002c-0.015-0.039-0.039-0.072-0.070-0.097l-0-0c-0.042-0.034-0.090-0.064-0.142-0.087l-0.004-0.002c-0.065-0.030-0.145-0.061-0.228-0.086l-0.015-0.004c-0.129-0.041-0.233-0.082-0.334-0.128l0.019 0.008c-0.1-0.045-0.185-0.097-0.264-0.158l0.003 0.002c-0.072-0.057-0.131-0.127-0.175-0.206l-0.002-0.004c-0.040-0.077-0.064-0.168-0.064-0.264 0-0.004 0-0.008 0-0.012v0.001c-0-0.002-0-0.005-0-0.008 0-0.098 0.025-0.191 0.068-0.271l-0.002 0.003c0.045-0.084 0.107-0.155 0.187-0.214 0.080-0.061 0.175-0.107 0.285-0.139 0.111-0.032 0.231-0.049 0.363-0.049 0.179 0 0.337 0.033 0.47 0.097s0.238 0.154 0.311 0.266c0.075 0.113 0.112 0.242 0.112 0.387h-0.499c0-0.003 0-0.006 0-0.009 0-0.066-0.017-0.127-0.046-0.181l0.001 0.002c-0.031-0.056-0.076-0.1-0.132-0.128l-0.002-0.001c-0.060-0.030-0.132-0.047-0.207-0.047-0.006 0-0.012 0-0.019 0l0.001-0c-0.005-0-0.011-0-0.017-0-0.072 0-0.141 0.015-0.204 0.042l0.003-0.001c-0.054 0.022-0.099 0.059-0.13 0.105l-0.001 0.001c-0.027 0.040-0.043 0.090-0.043 0.144 0 0.001 0 0.003 0 0.004v-0c0 0.041 0.010 0.079 0.030 0.112 0.025 0.037 0.057 0.069 0.093 0.093l0.001 0.001c0.041 0.029 0.091 0.057 0.152 0.082s0.13 0.051 0.209 0.075c0.133 0.040 0.25 0.085 0.35 0.135s0.186 0.106 0.254 0.169c0.069 0.063 0.119 0.133 0.154 0.213s0.051 0.169 0.051 0.27c0 0.007 0 0.015 0 0.023 0 0.194-0.094 0.366-0.24 0.473l-0.002 0.001c-0.078 0.058-0.171 0.102-0.279 0.132s-0.229 0.046-0.363 0.046c-0.121 0-0.24-0.016-0.357-0.047-0.122-0.033-0.228-0.083-0.324-0.148l0.004 0.002c-0.094-0.064-0.171-0.147-0.226-0.244l-0.002-0.004c-0.057-0.101-0.085-0.219-0.085-0.357h0.504c0 0.076 0.011 0.14 0.035 0.193 0.023 0.051 0.056 0.094 0.098 0.126l0.001 0.001c0.044 0.032 0.095 0.056 0.151 0.070l0.003 0.001c0.060 0.015 0.126 0.022 0.198 0.022 0.005 0 0.012 0 0.018 0 0.070 0 0.138-0.014 0.199-0.038l-0.004 0.001c0.099-0.040 0.167-0.135 0.167-0.246 0-0.001 0-0.003-0-0.004v0z"></path>
</symbol>
</defs>
</svg>
